<svg width="472" height="134" viewBox="0 0 472 134" fill="none" xmlns="http://www.w3.org/2000/svg">
<path d="M360.085 37.187L359.169 36.2123V11.3717H336.632V36.2123L335.717 37.187H319.619V57.8038H335.717L336.632 58.7194V105.742C336.632 124.853 345.464 132.119 364.574 132.119H379.933V111.502H365.962C363.127 111.502 359.169 110.025 359.169 105.565V58.7194L360.085 57.8038H379.933V37.187H360.085Z" fill="white"/>
<path d="M428.669 72.3064C421.078 70.6523 415.732 69.205 415.732 64.1837C415.732 61.9685 418.952 55.8839 431.8 55.8839C444.649 55.8839 447.041 65.9855 447.041 69.2641H469.608C469.608 57.9219 465.531 49.2971 458.324 43.8033C450.911 38.1322 443.645 35.2671 431.712 35.2671C419.779 35.2671 411.479 38.0731 404.124 43.6851C396.829 49.3562 393.195 56.3269 393.195 64.5677C393.195 83.8258 408.643 89.8218 422.585 91.9484C446.628 95.611 449.611 98.5647 449.611 103.822C449.611 110.261 445.712 113.304 433.011 113.304C426.69 113.304 415.082 109.523 415.082 100.012H391.571C391.719 108.873 395.499 117.852 403.002 124.203C410.652 130.671 419.601 133.92 432.627 133.92C445.653 133.92 453.48 131.173 460.953 125.68C468.426 120.186 472 112.477 472 102.582C472 74.4626 432.893 73.163 428.669 72.2473V72.3064Z" fill="white"/>
<path d="M212.902 111.502C208.944 111.502 206.758 108.932 206.758 106.569V69.3232C206.758 55.3817 197.661 35.2671 169.158 35.2671C156.664 35.2671 148.896 38.1026 141.009 43.626C133.123 49.1494 129.165 58.1287 129.165 69.2641H151.731C152.233 60.9347 155.778 55.8839 169.128 55.8839C180.618 55.8839 184.222 59.8713 184.222 67.8463C184.222 69.8548 183.07 71.627 178.551 72.2178C150.254 75.9394 125.945 81.5219 125.945 104.974C125.945 116.641 133.182 133.979 162.099 133.979C178.196 133.979 186.585 122.844 186.585 122.844H188.327C188.327 122.844 192.994 132.148 206.64 132.148H214.822V111.531H212.873L212.902 111.502ZM177.251 107.219C172.761 111.413 169.512 113.156 160.681 113.363C154.951 113.481 148.482 110.202 148.482 105.033C148.482 98.2103 155.896 95.1089 164.668 93.9865C173.441 92.8641 184.222 91.1214 184.222 91.1214C184.222 91.1214 184.192 100.75 177.281 107.219H177.251Z" fill="white"/>
<path d="M284.381 91.2691C284.381 97.5014 283.289 113.363 266.837 113.363C250.384 113.363 248.996 97.6195 249.055 91.2691V37.187H226.519V89.3196C226.519 106.569 230.683 133.95 264.887 133.95C278.769 133.95 284.411 125.148 284.411 125.148H285.74L287.335 132.119H306.948V37.187H284.411V91.2395L284.381 91.2691Z" fill="white"/>
<path d="M436.024 0V2.92416H441.045L441.163 3.07184V18.6969H444.353V3.07184L444.501 2.92416H449.522V0H436.024Z" fill="white"/>
<path d="M464.055 0L460.894 13.2325L457.734 0H451.915V18.6969H455.105V3.24906H455.371L459.063 18.6969H462.755L466.447 3.24906H466.683V18.6969H469.903V0H464.055Z" fill="white"/>
<path d="M85.4208 0V98.4761H83.619L32.1952 0H0V132.119H22.5367V33.7312H24.3975L75.7622 132.119H107.957V0H85.4208Z" fill="white"/>
</svg>
