<svg width="141" height="40" viewBox="0 0 141 40" fill="none" xmlns="http://www.w3.org/2000/svg">
<path d="M107.504 11.1023L107.231 10.8113V3.39506H100.503V10.8113L100.229 11.1023H95.4233V17.2575H100.229L100.503 17.5309V31.5697C100.503 37.2751 103.139 39.4444 108.845 39.4444H113.43V33.2892H109.259C108.413 33.2892 107.231 32.8483 107.231 31.5168V17.5309L107.504 17.2575H113.43V11.1023H107.504Z" fill="white"/>
<path d="M127.981 21.5873C125.714 21.0935 124.118 20.6614 124.118 19.1623C124.118 18.5009 125.079 16.6843 128.915 16.6843C132.751 16.6843 133.466 19.7002 133.466 20.679H140.203C140.203 17.2928 138.986 14.7178 136.834 13.0776C134.621 11.3845 132.452 10.5291 128.889 10.5291C125.326 10.5291 122.848 11.3668 120.653 13.0423C118.474 14.7354 117.39 16.8166 117.39 19.2769C117.39 25.0265 122.002 26.8166 126.164 27.4515C133.342 28.545 134.233 29.4268 134.233 30.9965C134.233 32.9189 133.069 33.8272 129.277 33.8272C127.39 33.8272 123.924 32.6984 123.924 29.8589H116.905C116.949 32.5044 118.078 35.1852 120.317 37.0811C122.601 39.0123 125.273 39.9824 129.162 39.9824C133.051 39.9824 135.388 39.1623 137.619 37.522C139.85 35.8818 140.917 33.5802 140.917 30.6261C140.917 22.231 129.242 21.843 127.981 21.5697V21.5873Z" fill="white"/>
<path d="M63.5626 33.2892C62.381 33.2892 61.7284 32.522 61.7284 31.8166V20.6966C61.7284 16.5344 59.0123 10.5291 50.5026 10.5291C46.7725 10.5291 44.4533 11.3757 42.0988 13.0247C39.7443 14.6737 38.5626 17.3545 38.5626 20.679H45.2998C45.4497 18.1922 46.5079 16.6843 50.4938 16.6843C53.9242 16.6843 55 17.8748 55 20.2557C55 20.8554 54.6561 21.3845 53.3069 21.5608C44.8589 22.672 37.6014 24.3386 37.6014 31.3404C37.6014 34.8236 39.7619 40 48.3951 40C53.2011 40 55.7055 36.6755 55.7055 36.6755H56.2257C56.2257 36.6755 57.619 39.4533 61.6931 39.4533H64.1358V33.2981H63.5538L63.5626 33.2892ZM52.9189 32.0106C51.5785 33.2628 50.6085 33.7831 47.9718 33.8448C46.261 33.8801 44.3298 32.9012 44.3298 31.358C44.3298 29.321 46.5432 28.3951 49.1623 28.06C51.7813 27.7249 55 27.2046 55 27.2046C55 27.2046 54.9912 30.0794 52.9277 32.0106H52.9189Z" fill="white"/>
<path d="M84.903 27.2487C84.903 29.1093 84.5767 33.8448 79.6649 33.8448C74.7531 33.8448 74.3386 29.1446 74.3563 27.2487V11.1023H67.6279V26.6667C67.6279 31.8166 68.8713 39.9912 79.0829 39.9912C83.2275 39.9912 84.9118 37.3633 84.9118 37.3633H85.3086L85.7848 39.4444H91.6402V11.1023H84.9118V27.2399L84.903 27.2487Z" fill="white"/>
<path d="M130.176 0V0.873016H131.676L131.711 0.917108V5.58201H132.663V0.917108L132.707 0.873016H134.206V0H130.176Z" fill="white"/>
<path d="M138.545 0L137.601 3.95062L136.658 0H134.921V5.58201H135.873V0.970018H135.952L137.055 5.58201H138.157L139.259 0.970018H139.33V5.58201H140.291V0H138.545Z" fill="white"/>
<path d="M25.5026 0V29.4004H24.9647L9.61199 0H0V39.4444H6.7284V10.0705H7.28395L22.619 39.4444H32.231V0H25.5026Z" fill="white"/>
</svg>
